#!OML:ASF X:\für Bonn\!DataBase\2005_08_12_Daniel\c3d\Daniel.ASF
:FULLY-SPECIFIED
:DEGREES
152
root 4.92917 16.655 -0.780546 142.378 -100.349 -158.914
lowerback 18.2336 -2.94689 -1.0504
upperback 9.77138 -4.80027 -4.94013
thorax -0.0537002 -2.61586 -3.76628
lowerneck 19.042 7.04077 -4.6302
upperneck 15.9185 6.98891 3.71486
head 1.73774 2.74305 1.65833
rclavicle 1.49089e-014 1.66979e-014
rhumerus -50.338 -15.1104 -73.7769
rradius 16.8932
rwrist 44.6084
rhand -5.0348 11.0437
rfingers 7.12502
rthumb 20.76 -17.8658
lclavicle 1.49089e-014 1.66979e-014
lhumerus -17.3094 -4.50987 74.1473
lradius 106.026
lwrist 13.7314
lhand -19.1395 -20.1265
lfingers 7.12502
lthumb 7.17052 9.73207
rfemur -9.85953 -4.45648 19.4248
rtibia 48.7961
rfoot -23.517 0.0435672
rtoes -0.400784
lfemur -21.3753 -4.55293 -21.5228
ltibia 92.713
lfoot 7.8491 5.8901
ltoes -14.6644
153
root 4.94579 16.6521 -0.777527 144.615 -100.426 -160.515
lowerback 17.5686 -3.22534 -1.09462
upperback 9.57095 -5.11996 -4.75955
thorax 0.0718233 -2.76824 -3.51993
lowerneck 18.9921 7.12532 -4.83991
upperneck 15.1684 7.14333 3.53804
head 1.48393 2.83594 1.61186
rclavicle 6.2816e-014 4.6118e-014
rhumerus -50.3784 -14.7273 -73.5305
rradius 17.0642
rwrist 43.1655
rhand -5.48097 10.8228
rfingers 7.12502
rthumb 20.3312 -18.133
lclavicle 6.2816e-014 4.6118e-014
lhumerus -16.1921 -4.94914 73.6487
lradius 107.096
lwrist 13.9592
lhand -19.415 -20.7938
lfingers 7.12502
lthumb 6.90455 9.07361
rfemur -10.6653 -4.68449 19.6418
rtibia 48.8953
rfoot -23.583 0.165913
rtoes -0.365672
lfemur -19.3104 -4.57034 -21.0891
ltibia 91.1383
lfoot 6.64446 5.29752
ltoes -15.8146
154
root 4.96271 16.6524 -0.774939 146.789 -100.52 -162.055
lowerback 16.9252 -3.5134 -1.13668
upperback 9.36883 -5.45553 -4.59407
thorax 0.187346 -2.92865 -3.29319
lowerneck 18.8756 7.22495 -5.04276
upperneck 14.4719 7.31502 3.40278
head 1.25802 2.93855 1.58042
rclavicle -4.05521e-014 -1.43125e-014
rhumerus -50.3519 -14.207 -73.4817
rradius 17.2884
rwrist 41.573
rhand -6.06228 10.7288
rfingers 7.12502
rthumb 19.7725 -18.2855
lclavicle -4.05521e-014 -1.43125e-014
lhumerus -15.0784 -5.35872 73.1031
lradius 108.116
lwrist 14.2217
lhand -19.6455 -21.3505
lfingers 7.12502
lthumb 6.68203 8.52407
rfemur -11.4517 -4.89722 19.8596
rtibia 48.9677
rfoot -23.6491 0.26636
rtoes -0.369282
lfemur -17.3867 -4.47035 -20.5924
ltibia 89.5239
lfoot 5.74773 4.71592
ltoes -16.1862
155
root 4.98067 16.6571 -0.77151 148.827 -100.652 -163.47
lowerback 16.3271 -3.80752 -1.20338
upperback 9.15588 -5.80586 -4.4263
thorax 0.27473 -3.09752 -3.05058
lowerneck 18.8331 7.3175 -5.21256
upperneck 13.7042 7.4803 3.22195
head 1.00254 3.04154 1.52618
rclavicle 2.82274e-014 3.73715e-014
rhumerus -50.2891 -13.6594 -73.4939
rradius 17.5595
rwrist 39.9288
rhand -6.64646 10.7194
rfingers 7.12502
rthumb 19.2108 -18.3518
lclavicle 2.82274e-014 3.73715e-014
lhumerus -13.9342 -5.7166 72.5668
lradius 109.089
lwrist 14.5288
lhand -19.8182 -21.6964
lfingers 7.12502
lthumb 6.51535 8.18334
rfemur -12.2121 -5.06182 20.0559
rtibia 49.0258
rfoot -23.7385 0.314692
rtoes -0.389578
lfemur -15.5817 -4.25251 -20.0593
ltibia 87.8628
lfoot 5.22703 4.11725
ltoes -16.2495
156
root 5.00067 16.6593 -0.768161 150.765 -100.8 -164.797
lowerback 15.7756 -4.11522 -1.26628
upperback 8.93774 -6.1781 -4.29167
thorax 0.332667 -3.27709 -2.84353
lowerneck 18.7868 7.41925 -5.31694
upperneck 12.9296 7.66596 3.04737
head 0.748364 3.15879 1.46248
rclavicle -2.60408e-014 -7.95139e-015
rhumerus -50.1868 -13.0938 -73.6225
rradius 17.8508
rwrist 38.3147
rhand -7.25873 10.816
rfingers 7.12502
rthumb 18.622 -18.3126
lclavicle -2.60408e-014 -7.95139e-015
lhumerus -12.6955 -6.01994 71.9607
lradius 109.991
lwrist 14.9091
lhand -19.8935 -21.7637
lfingers 7.12502
lthumb 6.4426 8.11832
rfemur -12.9783 -5.1719 20.256
rtibia 49.0909
rfoot -23.8489 0.312481
rtoes -0.498632
lfemur -13.8939 -3.99404 -19.5061
ltibia 86.2067
lfoot 4.97727 3.56011
ltoes -16.0009
157
root 5.02475 16.6599 -0.76441 152.579 -100.99 -165.996
lowerback 15.2543 -4.42353 -1.34474
upperback 8.71803 -6.5558 -4.1662
thorax 0.378179 -3.45995 -2.63975
lowerneck 18.7826 7.50108 -5.3665
upperneck 12.1128 7.83164 2.84872
head 0.47905 3.27012 1.38183
rclavicle -4.77083e-015 1.03368e-014
rhumerus -50.0565 -12.4798 -73.8614
rradius 18.2315
rwrist 36.58
rhand -7.765 10.9621
rfingers 7.12502
rthumb 18.1349 -18.2125
lclavicle -4.77083e-015 1.03368e-014
lhumerus -11.4905 -6.3145 71.3473
lradius 110.928
lwrist 15.3578
lhand -19.8933 -21.6245
lfingers 7.12502
lthumb 6.44281 8.25754
rfemur -13.7959 -5.28931 20.4256
rtibia 49.2053
rfoot -23.959 0.292175
rtoes -0.711816
lfemur -12.3108 -3.80752 -19.0254
ltibia 84.5605
lfoot 4.87226 3.11267
ltoes -15.7702
158
root 5.05395 16.6569 -0.759972 154.237 -101.209 -167.041
lowerback 14.8011 -4.7463 -1.43264
upperback 8.4768 -6.95742 -4.05753
thorax 0.367876 -3.65453 -2.44243
lowerneck 18.7874 7.59206 -5.35967
upperneck 11.3159 8.01401 2.62614
head 0.218717 3.39172 1.28375
rclavicle -3.95581e-014 1.43125e-014
rhumerus -49.935 -11.8506 -74.1643
rradius 18.7053
rwrist 34.8907
rhand -8.19388 11.1601
rfingers 7.12502
rthumb 17.7223 -18.0522
lclavicle -3.95581e-014 1.43125e-014
lhumerus -10.4614 -6.57271 70.7505
lradius 111.939
lwrist 15.8042
lhand -19.8964 -21.335
lfingers 7.12502
lthumb 6.43988 8.54712
rfemur -14.6741 -5.40097 20.5647
rtibia 49.3912
rfoot -24.0856 0.255477
rtoes -0.876895
lfemur -10.8434 -3.67522 -18.6034
ltibia 82.9498
lfoot 4.85073 2.79723
ltoes -15.7089
159
root 5.08781 16.6486 -0.754977 155.747 -101.46 -167.95
lowerback 14.4023 -5.07493 -1.54068
upperback 8.22979 -7.37234 -3.95634
thorax 0.328303 -3.85627 -2.23897
lowerneck 18.8195 7.68313 -5.32653
upperneck 10.5213 8.19462 2.40075
head -0.0434412 3.51316 1.18008
rclavicle -6.82825e-014 3.10104e-014
rhumerus -49.8375 -11.2121 -74.5138
rradius 19.2866
rwrist 33.2156
rhand -8.51927 11.3582
rfingers 7.12502
rthumb 17.4091 -17.8822
lclavicle -6.82825e-014 3.10104e-014
lhumerus -9.57349 -6.77487 70.169
lradius 112.996
lwrist 16.2349
lhand -19.8963 -21.0187
lfingers 7.12502
lthumb 6.43991 8.86339
rfemur -15.601 -5.52386 20.6679
rtibia 49.6503
rfoot -24.2254 0.208793
rtoes -1.05088
lfemur -9.4391 -3.55759 -18.2182
ltibia 81.364
lfoot 4.85959 2.57966
ltoes -15.9697
